# xmcd
#
# Track frame offsets:
# 150
# 15300
# 30225
# 44700
# 59477
# 76277
# 90077
# 103880
# 119630
# 136130
# 152332
# 171457
# 188182
# 202132
# 218935
#
# Disc length: 3173 seconds
#
#
# Revision: 0
# Processed by: cddbd v1.5.1PL0 Copyright (c) Steve Scherf et al.
# Submitted via: FreeRIP 2.90 
#
DISCID=ca0c630f
DTITLE=Manolo Galván - Los Super Éxitos
DYEAR=1900
DGENRE=
TTITLE0=Deja de llorar
TTITLE1=Te quise, te quiero y te querre
TTITLE2=Porque te quiero tanto
TTITLE3=Hoy no me levanto
TTITLE4=El ganador
TTITLE5=La primera vez
TTITLE6=Ella es motivo de volver
TTITLE7=Donde iras
TTITLE8=Porque te marchas abuelo
TTITLE9=Solo pienso en ti
TTITLE10=Tanto amor
TTITLE11=¿Quién se toma una copa conmigo?
TTITLE12=Te amaré en silencio
TTITLE13=Adios
TTITLE14=A quien
EXTD=
EXTT0=
EXTT1=
EXTT2=
EXTT3=
EXTT4=
EXTT5=
EXTT6=
EXTT7=
EXTT8=
EXTT9=
EXTT10=
EXTT11=
EXTT12=
EXTT13=
EXTT14=
PLAYORDER=
